<?xml version="1.0" encoding="utf-8"?>
<!-- Generator: Adobe Illustrator 23.0.0, SVG Export Plug-In . SVG Version: 6.00 Build 0)  -->
<svg version="1.1" id="Capa_1" xmlns="http://www.w3.org/2000/svg" xmlns:xlink="http://www.w3.org/1999/xlink" x="0px" y="0px"
	 viewBox="0 0 168.09 79.66" style="enable-background:new 0 0 168.09 79.66;" xml:space="preserve">
<style type="text/css">
	.st0{fill:#7A4199;}
	.st1{fill:#4DB7C7;}
	.st2{fill:#4DB7C7;stroke:#000000;stroke-width:0.117;stroke-miterlimit:10;}
	.st3{fill:#7B4199;}
	.st4{fill:#F5DD80;}
	.st5{fill:#808588;}
	.st6{fill:#FFFFFF;}
	.st7{fill:#FBAC4A;}
	.st8{fill:#FBAC4B;}
	.st9{fill:#FAA642;}
</style>
<g>
	<path class="st0" d="M24.87,27.77H7.81l-2.09,4.5H0.76L14.61,2.59h3.45l13.92,29.68h-5.04L24.87,27.77z M22.78,23.28l-6.4-13.71
		l-6.4,13.71H22.78z"/>
	<path class="st0" d="M40.27,16.15v16.12h-4.5V8.85h4.5v0.94c1.85-1.2,3.95-1.8,6.3-1.8v4.5c-1.99,0-3.68,0.7-5.07,2.09
		C40.99,15.07,40.58,15.6,40.27,16.15z"/>
	<path class="st0" d="M51.06,2.59h4.5v6.3h3.6v4.5h-3.6v18.89h-4.5V2.59z"/>
	<path class="st0" d="M67.25,27.77v4.5h-4.5v-4.5H67.25z"/>
	<path class="st1" d="M78.01,10.22c2.09-1.49,4.48-2.23,7.2-2.23c3.48,0,6.45,1.23,8.9,3.69c2.46,2.46,3.69,5.43,3.69,8.9
		c0,3.48-1.23,6.45-3.69,8.9c-2.46,2.46-5.43,3.69-8.9,3.69c-2.71,0-5.11-0.74-7.2-2.23v7.63h-4.5V8.88h4.5V10.22z M78.01,16.84
		v7.48c0.38,0.72,0.88,1.38,1.48,1.98c1.58,1.58,3.49,2.37,5.72,2.37s4.14-0.79,5.72-2.37c1.58-1.58,2.37-3.49,2.37-5.72
		s-0.79-4.14-2.37-5.72c-1.58-1.58-3.49-2.37-5.72-2.37s-4.14,0.79-5.72,2.37C78.88,15.46,78.39,16.12,78.01,16.84z"/>
	<path class="st1" d="M107.72,16.15v16.12h-4.5V8.85h4.5v0.94c1.85-1.2,3.95-1.8,6.3-1.8v4.5c-1.99,0-3.68,0.7-5.07,2.09
		C108.44,15.07,108.03,15.6,107.72,16.15z"/>
	<path class="st1" d="M123.01,1.69v4.5h-4.5v-4.5H123.01z M123.01,8.88v23.39h-4.5V8.88H123.01z"/>
	<path class="st1" d="M134.71,16.15v16.12h-4.5V8.85h4.5v0.94c1.85-1.2,3.95-1.8,6.3-1.8c3.24,0,6,1.14,8.27,3.42
		c2.28,2.28,3.42,5.04,3.42,8.27v12.59h-4.5V19.68c0-1.99-0.7-3.69-2.1-5.09c-1.4-1.4-3.1-2.1-5.09-2.1c-1.99,0-3.68,0.7-5.07,2.09
		C135.43,15.07,135.02,15.6,134.71,16.15z"/>
	<path class="st1" d="M158.99,2.59h4.5v6.3h3.6v4.5h-3.6v18.89h-4.5V2.59z"/>
	<path d="M69.07,55.59c-1.04,0.74-2.24,1.12-3.6,1.12c-1.74,0-3.22-0.61-4.45-1.84c-1.23-1.23-1.84-2.71-1.84-4.45
		c0-1.74,0.61-3.22,1.84-4.45c1.23-1.23,2.71-1.84,4.45-1.84c1.35,0,2.55,0.37,3.6,1.12v-3.81h2.25v14.84h-2.25V55.59z M69.07,52.28
		v-3.74c-0.19-0.36-0.44-0.69-0.74-0.99c-0.79-0.79-1.74-1.19-2.86-1.19c-1.12,0-2.07,0.4-2.86,1.19c-0.79,0.79-1.19,1.74-1.19,2.86
		c0,1.12,0.4,2.07,1.19,2.86c0.79,0.79,1.74,1.19,2.86,1.19c1.12,0,2.07-0.4,2.86-1.19C68.63,52.97,68.87,52.64,69.07,52.28z"/>
	<path d="M85.47,46.81l-1.64,1.64l-5.5,5.5c0.59,0.34,1.24,0.5,1.96,0.5c1.23,0,2.3-0.52,3.18-1.55l1.76,1.39
		c-1.32,1.61-2.97,2.41-4.95,2.41c-1.74,0-3.22-0.61-4.45-1.84c-1.23-1.23-1.84-2.71-1.84-4.45c0-1.74,0.61-3.22,1.84-4.45
		c1.23-1.23,2.71-1.84,4.45-1.84c1.74,0,3.23,0.61,4.46,1.83C85.02,46.22,85.26,46.51,85.47,46.81z M82.25,46.86
		c-0.59-0.34-1.24-0.5-1.96-0.5c-1.12,0-2.07,0.4-2.86,1.19c-0.79,0.79-1.19,1.74-1.19,2.86c0,0.72,0.17,1.37,0.5,1.96L82.25,46.86z
		"/>
	<path d="M89.07,53.83c1.01,0.42,1.94,0.63,2.79,0.63c0.84,0,1.48-0.12,1.93-0.36c0.45-0.24,0.67-0.55,0.67-0.92
		c0-0.32-0.11-0.6-0.33-0.84c-0.22-0.23-0.52-0.4-0.89-0.49l-2.43-0.65c-0.96-0.25-1.7-0.68-2.23-1.3
		c-0.53-0.61-0.79-1.35-0.79-2.21c0-0.98,0.39-1.82,1.17-2.51c0.78-0.69,1.79-1.05,3.04-1.07c1.61,0,3.08,0.47,4.43,1.4l-1.49,1.71
		c-0.98-0.58-1.95-0.86-2.9-0.86c-0.6,0.01-1.08,0.15-1.44,0.4c-0.36,0.26-0.54,0.57-0.54,0.94c0,0.32,0.12,0.59,0.37,0.8
		c0.25,0.21,0.59,0.38,1.03,0.51l2.52,0.68c0.86,0.23,1.55,0.64,2.06,1.25c0.51,0.61,0.76,1.36,0.76,2.26c0,1-0.4,1.83-1.21,2.49
		c-0.81,0.67-2.05,1-3.71,1c-1.38,0-2.78-0.37-4.19-1.1L89.07,53.83z"/>
	<path d="M101.88,40.96v2.25h-2.25v-2.25H101.88z M101.88,44.56v11.69h-2.25V44.56H101.88z"/>
	<path d="M107.72,48.2v8.06h-2.25V44.54h2.25v0.47c0.92-0.6,1.97-0.9,3.15-0.9c1.62,0,3,0.57,4.14,1.71
		c1.14,1.14,1.71,2.52,1.71,4.14v6.3h-2.25v-6.3c0-1-0.35-1.84-1.05-2.55c-0.7-0.7-1.55-1.05-2.55-1.05c-1,0-1.84,0.35-2.54,1.04
		C108.08,47.66,107.88,47.92,107.72,48.2z"/>
	<path d="M128.86,56.02v-0.43c-1.04,0.74-2.24,1.12-3.6,1.12c-1.74,0-3.22-0.61-4.45-1.84c-1.23-1.23-1.84-2.71-1.84-4.45
		c0-1.74,0.61-3.22,1.84-4.45c1.23-1.23,2.71-1.84,4.45-1.84c1.35,0,2.55,0.37,3.6,1.12v-0.67h2.25v11.46c0,1.68-0.59,3.11-1.78,4.3
		c-1.19,1.19-2.61,1.78-4.28,1.78v-2.25c1.06,0,1.95-0.37,2.7-1.12C128.49,57.99,128.86,57.09,128.86,56.02z M128.86,52.28v-3.74
		c-0.19-0.36-0.44-0.69-0.74-0.99c-0.79-0.79-1.74-1.19-2.86-1.19s-2.07,0.4-2.86,1.19c-0.79,0.79-1.19,1.74-1.19,2.86
		c0,1.12,0.4,2.07,1.19,2.86c0.79,0.79,1.74,1.19,2.86,1.19s2.07-0.4,2.86-1.19C128.42,52.97,128.67,52.64,128.86,52.28z"/>
</g>
<g>
	<polygon class="st2" points="3.09,49.99 45.72,49.99 45.72,69.17 35.06,69.17 35.06,65.06 38.56,65.06 38.56,63.39 10.25,63.39 
		10.25,65.06 13.75,65.06 13.75,69.17 3.09,69.17 	"/>
	<path d="M46.07,69.53H34.7v-4.83h3.5v-0.96h-27.6v0.96h3.5v4.83H2.73v-19.9h43.34V69.53z M35.42,68.81h9.94V50.35H3.45v18.46h9.94
		v-3.39h-3.5v-2.39h29.03v2.39h-3.5V68.81z"/>
	<g>
		<path d="M35.12,50.35H14V36.39h14.52l6.6,6.84V50.35z M14.72,49.63H34.4v-6.12l-6.19-6.41H14.72V49.63z"/>
	</g>
	<g>
		<path d="M29.21,44.11l-0.57-7.15l1.97,1.68l4.22,4.83L29.21,44.11z M29.49,38.62l0.38,4.69l3.52-0.4l-3.3-3.78L29.49,38.62z"/>
	</g>
	<g>
		<path class="st0" d="M14.36,49.99v-6.62c0,0-2.89-0.91-3.2,3.31v3.31H14.36z"/>
		<path d="M14.72,50.35h-3.92v-3.67c0.12-1.63,0.61-2.74,1.46-3.32c1.02-0.69,2.15-0.35,2.2-0.33l0.25,0.08V50.35z M11.52,49.63H14
			v-5.97c-0.31-0.04-0.85-0.04-1.34,0.29c-0.66,0.45-1.05,1.38-1.14,2.75L11.52,49.63z"/>
	</g>
	<g>
		<path class="st0" d="M34.76,49.99v-6.62c0,0,2.89-0.91,3.2,3.31v3.31H34.76z"/>
		<path d="M38.32,50.35H34.4v-7.24l0.25-0.08c0.05-0.02,1.18-0.36,2.2,0.33c0.85,0.58,1.35,1.69,1.46,3.3L38.32,50.35z M35.12,49.63
			h2.48v-2.95c-0.1-1.34-0.48-2.27-1.14-2.72c-0.49-0.33-1.03-0.33-1.34-0.29V49.63z"/>
	</g>
	<path class="st2" d="M37.77,54.25c0.06,0.78-0.52,1.46-1.3,1.52c-0.78,0.06-1.46-0.52-1.52-1.3c-0.06-0.78,0.52-1.46,1.3-1.52
		C37.03,52.89,37.71,53.47,37.77,54.25z"/>
	<path class="st3" d="M36.36,55.96c-0.88,0-1.59-0.72-1.59-1.59c0-0.88,0.72-1.6,1.59-1.6c0.88,0,1.6,0.72,1.6,1.6
		C37.95,55.24,37.24,55.96,36.36,55.96z M36.36,53.13c-0.68,0-1.24,0.55-1.24,1.24c0,0.68,0.56,1.24,1.24,1.24
		c0.68,0,1.24-0.55,1.24-1.24C37.59,53.68,37.04,53.13,36.36,53.13z"/>
	<g>
		<rect x="10.25" y="63.39" class="st0" width="28.31" height="1.67"/>
		<path d="M38.92,65.42H9.89v-2.39h29.03V65.42z M10.61,64.71h27.6v-0.96h-27.6V64.71z"/>
	</g>
	<g>
		<path d="M35.11,77.95H13.39V64.71h22.04L35.11,77.95z M14.11,77.23h20.3l0.29-11.81H14.11V77.23z"/>
	</g>
	<g>
		<g>
			<g>
				<path class="st4" d="M24.07,70.91c0,0.08-0.05,0.14-0.1,0.14s-0.1-0.06-0.1-0.14c0-0.08,0.04-0.14,0.1-0.14
					S24.07,70.84,24.07,70.91z"/>
			</g>
		</g>
		<g>
			<g>
				<path class="st4" d="M24.71,70.74c0,0.06-0.04,0.11-0.09,0.11c-0.05,0-0.09-0.05-0.09-0.11c0-0.06,0.04-0.12,0.09-0.12
					C24.67,70.63,24.71,70.68,24.71,70.74z"/>
			</g>
		</g>
		<g>
			<g>
				<path class="st5" d="M24.35,74.6c0,0-0.39-0.02-0.25,0.37c0,0-0.41,0.45,0.17,0.61c0,0-0.2,0.4,0.3,0.48c0,0-0.25,0.5,0.7,0.41
					c0,0,0.22,0.32,0.63,0.25c0,0,0.32,0,0.33-0.52c0,0,0.63-0.29,0.41-0.67c0,0,0.23-0.32-0.08-0.47c0,0,0.3-0.33-0.11-0.55
					c0,0,0.19-0.3-0.27-0.35C26.18,74.15,25.56,74.89,24.35,74.6z"/>
			</g>
		</g>
		<g>
			<g>
				<path class="st6" d="M24.35,75.08c0,0,1.18,0.13,1.94-0.36c0,0,0.26-0.06,0.08,0.19c0,0-0.47,0.46-1.88,0.4
					C24.49,75.31,24.07,75.29,24.35,75.08z"/>
			</g>
			<g>
				<path class="st6" d="M24.72,75.37c-0.08,0-0.15,0-0.23,0c-0.06,0-0.25-0.01-0.29-0.13c-0.03-0.1,0.08-0.19,0.12-0.22l0.02-0.01
					l0.03,0c0.01,0,1.17,0.12,1.9-0.35l0.02-0.01c0.03-0.01,0.15-0.03,0.2,0.05c0.05,0.08-0.01,0.17-0.06,0.24
					C26.4,74.97,25.96,75.37,24.72,75.37z M24.37,75.14c-0.05,0.04-0.06,0.07-0.06,0.07c0.01,0.01,0.1,0.03,0.17,0.04
					c1.37,0.05,1.83-0.38,1.84-0.39c0.03-0.04,0.04-0.07,0.05-0.09c-0.01,0-0.04,0-0.05,0C25.61,75.23,24.56,75.16,24.37,75.14z"/>
			</g>
		</g>
		<g>
			<g>
				<path class="st6" d="M24.66,75.57c0,0,0.99,0.03,1.65-0.35c0,0,0.3-0.14,0.12,0.17c0,0-0.62,0.47-1.77,0.39
					C24.66,75.79,24.32,75.67,24.66,75.57z"/>
			</g>
			<g>
				<path class="st6" d="M24.93,75.86c-0.09,0-0.18,0-0.28-0.01l-0.02,0c-0.06-0.02-0.2-0.08-0.2-0.18c0-0.09,0.12-0.14,0.2-0.16
					l0.01,0h0.01c0.01,0,0.98,0.03,1.62-0.34c0.04-0.02,0.18-0.07,0.24,0c0.06,0.07,0.01,0.18-0.03,0.26l-0.02,0.02
					C26.45,75.47,25.92,75.86,24.93,75.86z M24.68,75.73c1.03,0.07,1.63-0.31,1.71-0.37c0.03-0.05,0.04-0.08,0.04-0.1
					c-0.02,0-0.06,0.01-0.09,0.03c-0.63,0.36-1.55,0.35-1.67,0.35c-0.05,0.02-0.08,0.03-0.09,0.04
					C24.6,75.69,24.64,75.71,24.68,75.73z"/>
			</g>
		</g>
		<g>
			<g>
				<path class="st6" d="M24.94,76.05c0,0,0.72,0,1.38-0.33c0,0,0.23-0.09,0.06,0.09c0,0-0.61,0.5-1.44,0.43
					C24.94,76.23,24.57,76.13,24.94,76.05z"/>
			</g>
			<g>
				<path class="st6" d="M25.11,76.3c-0.06,0-0.12,0-0.18-0.01c-0.11-0.03-0.22-0.07-0.22-0.16c0-0.08,0.11-0.12,0.21-0.15l0.02,0
					c0.01,0,0.71,0,1.35-0.32c0.15-0.07,0.19-0.01,0.2,0c0.04,0.07-0.03,0.14-0.06,0.18C26.4,75.87,25.87,76.3,25.11,76.3z
					 M24.87,76.13c0.02,0.01,0.06,0.02,0.09,0.03c0.59,0.05,1.08-0.21,1.28-0.34c-0.6,0.27-1.21,0.29-1.29,0.29
					C24.91,76.12,24.89,76.13,24.87,76.13z"/>
			</g>
		</g>
		<g>
			<g>
				<path class="st6" d="M26.07,76.31c0.01,0.04-0.06,0.09-0.17,0.12c-0.1,0.03-0.19,0.02-0.2-0.02c-0.01-0.04,0.06-0.09,0.16-0.12
					C25.97,76.27,26.06,76.28,26.07,76.31z"/>
			</g>
			<g>
				<path class="st6" d="M25.78,76.51c-0.01,0-0.02,0-0.02,0c-0.09-0.01-0.12-0.05-0.12-0.08c-0.01-0.02-0.01-0.08,0.06-0.13
					c0.04-0.03,0.09-0.05,0.14-0.07c0.06-0.02,0.11-0.02,0.16-0.02c0.09,0.01,0.12,0.05,0.12,0.08l0,0c0,0.02,0.01,0.04-0.01,0.07
					c-0.03,0.05-0.1,0.09-0.2,0.12C25.87,76.51,25.82,76.51,25.78,76.51z M25.95,76.35c-0.02,0-0.04,0.01-0.07,0.01
					c-0.03,0.01-0.05,0.02-0.07,0.02c0.02,0,0.05-0.01,0.07-0.01C25.91,76.36,25.93,76.35,25.95,76.35z"/>
			</g>
		</g>
		<g>
			<g>
				<path class="st7" d="M26.95,68.33c0,0,0.65-0.5,1.05-0.52c0,0,0.31,0.08,0.07,0.34c0,0-0.61,0.13-0.91,0.29
					C27.17,68.44,26.55,68.78,26.95,68.33z"/>
			</g>
		</g>
		<g>
			<g>
				<path class="st7" d="M26.36,67.91c0,0,0.48-0.47,0.77-0.64c0,0,0.14-0.27-0.2-0.2c0,0-0.51,0.45-0.71,0.78
					C26.22,67.85,26.12,68.22,26.36,67.91z"/>
			</g>
		</g>
		<g>
			<g>
				<path class="st7" d="M25.76,67.55c0,0,0.22-0.59,0.43-0.86c0,0,0.02-0.25-0.22-0.12c0,0-0.33,0.5-0.36,0.88
					C25.62,67.44,25.59,67.95,25.76,67.55z"/>
			</g>
		</g>
		<g>
			<g>
				<path class="st7" d="M24.48,67.06c0,0,0.08-0.66,0.14-0.89c0,0-0.1-0.24-0.26,0c0,0-0.09,0.53-0.07,0.89
					C24.3,67.06,24.43,67.46,24.48,67.06z"/>
			</g>
		</g>
		<g>
			<g>
				<path class="st7" d="M23.08,67.18c0,0,0.03-0.67,0.16-1.07c0,0-0.06-0.33-0.35-0.08c0,0-0.03,0.92,0.04,1.08
					C22.93,67.11,23.05,67.64,23.08,67.18z"/>
			</g>
		</g>
		<g>
			<g>
				<path class="st7" d="M22.3,67.5c0,0-0.2-0.41-0.21-0.98c0,0-0.19-0.26-0.33,0.05c0,0,0.11,0.76,0.36,0.98
					C22.12,67.55,22.53,67.99,22.3,67.5z"/>
			</g>
		</g>
		<g>
			<g>
				<path class="st7" d="M21.63,67.81c0,0-0.26-0.29-0.54-0.75c0,0-0.24-0.14-0.23,0.18c0,0,0.39,0.57,0.64,0.68
					C21.5,67.91,21.89,68.14,21.63,67.81z"/>
			</g>
		</g>
		<g>
			<g>
				<path class="st7" d="M20.75,68.47c0,0-0.44-0.29-0.68-0.61c0,0-0.26-0.06-0.2,0.22c0,0,0.46,0.46,0.8,0.57
					C20.67,68.65,21.09,68.72,20.75,68.47z"/>
			</g>
		</g>
		<g>
			<g>
				<path class="st7" d="M20.44,69.66c0,0-0.59-0.25-0.88-0.51c0,0-0.33-0.06-0.23,0.26c0,0,0.37,0.3,1.05,0.43
					C20.37,69.83,20.87,69.88,20.44,69.66z"/>
			</g>
		</g>
		<g>
			<g>
				<path class="st7" d="M20.5,70.53c0,0-0.31,0.05-0.98-0.16c0,0-0.3,0.04-0.1,0.26c0,0,0.1,0.16,1.08,0.12
					C20.5,70.74,20.9,70.55,20.5,70.53z"/>
			</g>
		</g>
		<g>
			<g>
				<path class="st7" d="M20.53,71.26c0,0-0.39,0.19-0.9,0.23c0,0-0.2,0.2,0.05,0.27c0,0,0.67-0.08,0.93-0.3
					C20.61,71.46,20.89,71.21,20.53,71.26z"/>
			</g>
		</g>
		<g>
			<g>
				<path class="st4" d="M24.3,74.63c0,0,0-1.32-2.32-2.08c0,0-2.09-1.32-0.3-3.86c0,0,1.46-1.98,3.89-0.49c0,0,1.68,0.98,1.01,2.94
					c0,0-0.93,2.08-0.45,3.05C26.14,74.19,25.54,74.93,24.3,74.63z"/>
			</g>
			<g>
				<path class="st8" d="M24.87,74.83c-0.18,0-0.38-0.02-0.6-0.07l-0.1-0.02v-0.1c0-0.01-0.01-0.32-0.28-0.7
					c-0.26-0.37-0.8-0.88-1.95-1.26l-0.03-0.01c-0.03-0.02-0.84-0.54-1.04-1.55c-0.15-0.77,0.08-1.61,0.7-2.49
					c0.02-0.02,1.56-2.06,4.06-0.52c0.01,0.01,1.76,1.05,1.06,3.08c-0.01,0.03-0.91,2.04-0.46,2.95l0.04,0.07l-0.05,0.06
					C26.21,74.29,25.77,74.83,24.87,74.83z M24.42,74.53c0.89,0.18,1.41-0.22,1.56-0.37c-0.42-1.04,0.45-2.99,0.48-3.07
					c0.63-1.83-0.89-2.74-0.96-2.77c-2.3-1.42-3.67,0.37-3.72,0.45c-0.58,0.82-0.8,1.59-0.66,2.29c0.17,0.85,0.82,1.31,0.92,1.38
					C24.06,73.1,24.37,74.19,24.42,74.53z"/>
			</g>
		</g>
		<g>
			<g>
				<path class="st9" d="M24.8,74.63c0,0-0.36-1.68-1.43-2.66c0,0-0.81-0.77-0.1-1.43c0,0,0.21-0.26,0.6-0.13
					c0,0,0.2-0.41,0.64-0.19c0,0,0.57-0.57,0.86,0.15c0,0,0.16,0.39-0.08,0.74c0,0-0.32,0.84-0.08,1.68c0,0,0.26,1.51,0.41,1.7
					l-0.17,0.06c0,0-0.44-1.28-0.5-2.07c0,0-0.18-1.13,0.19-1.63c0,0,0.15-0.44-0.19-0.65c0,0-0.22-0.04-0.22,0.17
					c0,0,0.22,0.32,0.11,0.59c0,0-0.2,0.28-0.42-0.04c0,0-0.13-0.25-0.02-0.48c0,0-0.16-0.19-0.33,0.02c0,0,0.3,0.33,0.18,0.63
					c0,0-0.14,0.32-0.49,0.08c0,0-0.24-0.25-0.07-0.57c0,0-0.6,0.07-0.51,0.7c0,0,0.1,0.39,0.41,0.62c0,0,0.6,0.63,0.82,1.17
					c0,0,0.52,0.95,0.56,1.53H24.8z"/>
			</g>
		</g>
	</g>
</g>
<g>
	<path d="M62.13,67.05c-0.09,0.1-0.18,0.22-0.27,0.36c-0.09,0.14-0.18,0.29-0.26,0.44c-0.08,0.15-0.15,0.29-0.22,0.43
		c-0.07,0.14-0.12,0.25-0.15,0.34c-0.03,0.14-0.08,0.18-0.16,0.13c-0.07-0.05-0.1-0.17-0.07-0.35c0.02-0.32,0.05-0.69,0.1-1.12
		c0.05-0.42,0.12-0.87,0.22-1.34c0.09-0.47,0.2-0.95,0.34-1.44c0.13-0.49,0.29-0.95,0.47-1.4c0.18-0.44,0.38-0.85,0.61-1.22
		c0.23-0.37,0.48-0.68,0.75-0.92c0.23-0.2,0.45-0.32,0.67-0.37c0.21-0.05,0.39-0.03,0.54,0.07s0.25,0.24,0.3,0.46
		c0.05,0.21,0.03,0.47-0.05,0.79c-0.11,0.38-0.3,0.8-0.56,1.25c-0.26,0.45-0.56,0.9-0.89,1.35c-0.33,0.45-0.67,0.87-1.03,1.28
		s-0.68,0.75-0.97,1.04c-0.01,0.01-0.02,0.08-0.04,0.21c-0.02,0.13-0.04,0.28-0.07,0.44c-0.02,0.16-0.05,0.32-0.07,0.47
		c-0.02,0.15-0.03,0.24-0.04,0.27c0.04-0.08,0.09-0.17,0.14-0.28c0.06-0.1,0.12-0.21,0.19-0.33c0.07-0.12,0.14-0.23,0.22-0.34
		c0.08-0.11,0.15-0.21,0.23-0.29c0.14-0.15,0.26-0.24,0.38-0.26c0.12-0.02,0.22,0,0.31,0.07c0.09,0.06,0.15,0.17,0.2,0.31
		c0.04,0.14,0.06,0.3,0.05,0.47c0.11-0.04,0.25-0.09,0.4-0.14c0.16-0.06,0.31-0.12,0.47-0.18c0.16-0.06,0.3-0.13,0.44-0.21
		c0.14-0.08,0.25-0.15,0.33-0.23c0.04-0.03,0.07-0.03,0.1,0c0.02,0.03,0.02,0.06-0.01,0.1c-0.09,0.09-0.21,0.17-0.35,0.25
		c-0.15,0.08-0.3,0.15-0.47,0.22c-0.16,0.07-0.33,0.14-0.49,0.19c-0.16,0.06-0.31,0.11-0.43,0.16c-0.04,0.18-0.11,0.37-0.22,0.56
		c-0.1,0.19-0.26,0.36-0.47,0.52c-0.17,0.1-0.31,0.15-0.43,0.13c-0.12-0.02-0.21-0.06-0.27-0.14c-0.06-0.08-0.09-0.18-0.08-0.3
		c0.01-0.12,0.06-0.24,0.16-0.35c0.13-0.15,0.29-0.25,0.49-0.3c0.2-0.05,0.39-0.1,0.57-0.17c0.02-0.12,0.02-0.25,0.01-0.38
		c-0.01-0.13-0.04-0.24-0.09-0.31c-0.05-0.08-0.12-0.11-0.2-0.11C62.37,66.83,62.26,66.91,62.13,67.05z M61.52,66.59
		c0.28-0.28,0.59-0.62,0.94-1.01c0.34-0.4,0.68-0.81,1-1.24c0.32-0.43,0.61-0.87,0.86-1.3c0.25-0.44,0.43-0.84,0.52-1.21
		c0.08-0.3,0.1-0.54,0.05-0.72c-0.05-0.18-0.14-0.29-0.27-0.35c-0.13-0.06-0.29-0.05-0.47,0.02c-0.18,0.07-0.38,0.2-0.58,0.38
		c-0.3,0.28-0.57,0.65-0.79,1.11c-0.22,0.46-0.42,0.95-0.58,1.46c-0.16,0.51-0.29,1.02-0.4,1.52
		C61.68,65.77,61.59,66.21,61.52,66.59z M62.71,67.77c-0.15,0.06-0.31,0.1-0.48,0.14c-0.17,0.04-0.31,0.12-0.42,0.25
		c-0.06,0.08-0.1,0.17-0.12,0.26c-0.02,0.09-0.01,0.17,0.02,0.23c0.03,0.06,0.08,0.09,0.16,0.09c0.08,0,0.18-0.05,0.31-0.14
		C62.44,68.39,62.62,68.11,62.71,67.77z"/>
	<path d="M64.93,66.79c-0.03,0.03-0.07,0.08-0.1,0.15c-0.04,0.07-0.07,0.14-0.11,0.22c-0.04,0.08-0.07,0.16-0.1,0.23
		c-0.03,0.08-0.06,0.14-0.07,0.19c-0.02,0.06-0.02,0.12-0.02,0.17c0,0.05,0.04,0.05,0.12-0.01c0.27-0.19,0.52-0.41,0.74-0.65
		c0.22-0.24,0.46-0.47,0.72-0.68c0.06-0.06,0.13-0.1,0.19-0.14c0.06-0.04,0.12-0.06,0.16-0.07c0.09-0.02,0.16-0.01,0.2,0.03
		c0.05,0.04,0.08,0.08,0.1,0.14c0.02,0.06,0.03,0.13,0.03,0.2c0,0.08,0,0.14-0.01,0.2c-0.05,0.34-0.12,0.71-0.22,1.1
		c0.58-0.36,1.1-0.73,1.57-1.12c0.04-0.02,0.07-0.02,0.1,0.01c0.02,0.03,0.02,0.06-0.01,0.09c-0.26,0.21-0.53,0.41-0.81,0.61
		c-0.28,0.2-0.58,0.39-0.88,0.58c-0.13,0.52-0.29,1.08-0.5,1.67c-0.2,0.6-0.45,1.17-0.74,1.73c-0.29,0.56-0.63,1.08-1.01,1.55
		c-0.38,0.47-0.82,0.84-1.3,1.12c-0.41,0.23-0.77,0.33-1.09,0.31c-0.32-0.03-0.55-0.15-0.71-0.35c-0.16-0.21-0.22-0.5-0.19-0.86
		c0.03-0.37,0.19-0.78,0.48-1.24c0.29-0.45,0.62-0.85,0.98-1.22c0.37-0.36,0.76-0.7,1.18-1c0.42-0.3,0.85-0.59,1.3-0.86
		c0.45-0.27,0.89-0.54,1.33-0.82c0.06-0.24,0.12-0.47,0.16-0.69c0.04-0.22,0.08-0.43,0.11-0.64c0.03-0.26,0.02-0.39-0.05-0.41
		c-0.04-0.01-0.09,0.01-0.16,0.06c-0.06,0.05-0.14,0.1-0.22,0.17c-0.26,0.22-0.49,0.44-0.7,0.67c-0.21,0.23-0.44,0.43-0.7,0.6
		c-0.14,0.09-0.25,0.12-0.34,0.09c-0.09-0.03-0.11-0.14-0.07-0.34c0.03-0.14,0.09-0.3,0.16-0.47c0.08-0.17,0.15-0.3,0.21-0.39
		c0.04-0.05,0.09-0.08,0.14-0.11c0.06-0.02,0.1-0.03,0.14-0.03c0.04,0,0.06,0.02,0.06,0.05C65.02,66.67,64.99,66.72,64.93,66.79z
		 M66.21,68.25c-0.42,0.26-0.85,0.53-1.28,0.79c-0.43,0.26-0.85,0.55-1.25,0.85c-0.4,0.3-0.79,0.63-1.15,0.98
		c-0.36,0.35-0.68,0.74-0.95,1.18c-0.26,0.4-0.41,0.77-0.46,1.12c-0.05,0.34-0.01,0.62,0.11,0.82c0.13,0.2,0.33,0.31,0.62,0.32
		c0.28,0.01,0.63-0.11,1.05-0.37c0.44-0.27,0.84-0.63,1.19-1.07c0.35-0.44,0.66-0.92,0.94-1.44c0.27-0.52,0.51-1.05,0.7-1.6
		C65.92,69.26,66.08,68.74,66.21,68.25z"/>
	<path d="M68.75,67.96c0.02-0.06,0.05-0.08,0.09-0.08s0.07,0.02,0.09,0.06c0.02,0.02,0.02,0.05,0.01,0.09
		c-0.01,0.04-0.02,0.06-0.04,0.08c-0.04,0.03-0.09,0.04-0.14,0.02C68.72,68.11,68.71,68.06,68.75,67.96z M68.86,65.65
		c0.02-0.06,0.05-0.08,0.09-0.08s0.07,0.02,0.09,0.06c0.02,0.02,0.02,0.05,0.01,0.09c-0.01,0.04-0.02,0.06-0.04,0.08
		c-0.04,0.03-0.09,0.04-0.14,0.02C68.82,65.8,68.82,65.74,68.86,65.65z"/>
	<path d="M78.82,63.32c-0.03-0.06-0.04-0.1-0.03-0.14c0.01-0.04,0.04-0.06,0.07-0.08c0.04-0.02,0.08-0.03,0.12-0.02
		c0.04,0.01,0.09,0.03,0.13,0.06c0.02,0.19,0.09,0.3,0.21,0.32c0.12,0.02,0.23-0.01,0.34-0.11c0.11-0.1,0.19-0.24,0.23-0.44
		c0.05-0.2,0.02-0.44-0.07-0.71c-0.12-0.32-0.34-0.57-0.67-0.76c-0.32-0.18-0.7-0.3-1.13-0.35c-0.43-0.05-0.88-0.04-1.36,0.02
		c-0.48,0.07-0.93,0.2-1.35,0.38c-0.42,0.19-0.79,0.43-1.1,0.74c-0.31,0.3-0.52,0.66-0.61,1.07c-0.09,0.38-0.08,0.73,0.03,1.05
		c0.11,0.32,0.28,0.6,0.5,0.86c0.23,0.26,0.5,0.5,0.8,0.73s0.62,0.44,0.93,0.64c0.31,0.2,0.6,0.4,0.88,0.6
		c0.27,0.2,0.49,0.4,0.65,0.61c0.28-0.11,0.62-0.25,1.02-0.43c0.4-0.17,0.8-0.37,1.19-0.61c0.03-0.02,0.06-0.01,0.08,0.02
		c0.02,0.03,0.02,0.05-0.02,0.07c-0.39,0.23-0.79,0.44-1.18,0.61c-0.4,0.18-0.73,0.32-1.01,0.43c0.21,0.35,0.32,0.72,0.35,1.09
		c0.02,0.38-0.02,0.74-0.13,1.1c-0.11,0.36-0.27,0.68-0.47,0.98c-0.21,0.3-0.44,0.55-0.71,0.75c-0.39,0.3-0.8,0.49-1.23,0.59
		c-0.43,0.1-0.82,0.12-1.18,0.05c-0.36-0.06-0.66-0.2-0.9-0.4c-0.24-0.2-0.36-0.45-0.37-0.74c-0.01-0.3,0.12-0.63,0.4-1
		c0.27-0.37,0.74-0.76,1.4-1.17c0.4-0.24,0.81-0.46,1.22-0.67c0.42-0.21,0.86-0.41,1.33-0.6c-0.16-0.19-0.38-0.39-0.67-0.59
		c-0.29-0.2-0.6-0.41-0.93-0.62c-0.33-0.22-0.66-0.45-0.98-0.7c-0.32-0.25-0.6-0.52-0.83-0.81c-0.23-0.29-0.39-0.61-0.48-0.95
		c-0.09-0.34-0.07-0.72,0.08-1.13c0.13-0.38,0.36-0.72,0.71-1.02c0.34-0.3,0.74-0.54,1.18-0.73c0.44-0.19,0.91-0.32,1.41-0.39
		c0.5-0.07,0.97-0.08,1.41-0.02c0.44,0.06,0.83,0.19,1.17,0.4c0.34,0.2,0.57,0.48,0.7,0.83c0.12,0.33,0.15,0.61,0.08,0.84
		c-0.07,0.23-0.18,0.4-0.32,0.52c-0.15,0.11-0.31,0.15-0.48,0.13C79.04,63.61,78.91,63.5,78.82,63.32z M77.25,67.98
		c-0.48,0.19-0.93,0.39-1.34,0.6c-0.42,0.21-0.82,0.43-1.21,0.67c-0.62,0.38-1.06,0.74-1.32,1.08c-0.26,0.34-0.4,0.65-0.4,0.93
		c0,0.28,0.1,0.5,0.31,0.68c0.21,0.18,0.47,0.3,0.8,0.35c0.32,0.05,0.68,0.03,1.07-0.07c0.39-0.1,0.78-0.29,1.15-0.58
		c0.25-0.19,0.47-0.43,0.67-0.72c0.2-0.29,0.34-0.6,0.44-0.94c0.1-0.34,0.14-0.68,0.13-1.03C77.53,68.63,77.43,68.3,77.25,67.98z"/>
	<path d="M79.9,66.73c-0.04,0.06-0.08,0.15-0.13,0.25c-0.05,0.1-0.09,0.21-0.12,0.32c-0.03,0.12-0.05,0.23-0.05,0.34
		c0,0.11,0.01,0.2,0.05,0.27c0.03,0.06,0.08,0.1,0.14,0.11c0.06,0.01,0.12,0.01,0.19,0c0.07-0.01,0.13-0.03,0.19-0.06
		c0.06-0.03,0.11-0.05,0.16-0.08c0.24-0.14,0.48-0.3,0.72-0.5c0.24-0.2,0.46-0.4,0.66-0.6c0.02-0.02,0.05-0.02,0.08,0.01
		c0.03,0.03,0.03,0.05,0,0.08c-0.21,0.21-0.43,0.41-0.67,0.62c-0.24,0.2-0.49,0.37-0.74,0.51c-0.07,0.04-0.15,0.08-0.24,0.11
		c-0.09,0.04-0.18,0.06-0.26,0.07c-0.09,0.01-0.17,0-0.25-0.03c-0.08-0.03-0.14-0.09-0.19-0.17c-0.05-0.08-0.07-0.17-0.08-0.28
		c0-0.11,0.01-0.22,0.03-0.34c0.02-0.12,0.06-0.23,0.1-0.34c0.04-0.11,0.08-0.2,0.13-0.27c0.03-0.06,0.07-0.11,0.13-0.14
		c0.05-0.03,0.1-0.04,0.13-0.04c0.04,0,0.06,0.02,0.07,0.05C79.96,66.64,79.94,66.68,79.9,66.73z M80.23,66.17
		c-0.03,0.04-0.07,0.06-0.11,0.07c-0.04,0-0.08-0.01-0.11-0.03c-0.03-0.02-0.05-0.06-0.06-0.1c-0.01-0.04,0.01-0.09,0.06-0.14
		c0.02-0.02,0.06-0.04,0.1-0.04c0.04,0,0.08,0.01,0.11,0.02c0.03,0.02,0.05,0.04,0.06,0.08C80.27,66.08,80.26,66.13,80.23,66.17z"/>
	<path d="M85.68,62.82c-0.2,0.38-0.46,0.77-0.77,1.15c-0.32,0.38-0.65,0.74-1,1.09c-0.35,0.34-0.7,0.66-1.04,0.95
		c-0.34,0.29-0.64,0.54-0.9,0.75c-0.04,0.24-0.07,0.5-0.1,0.77c-0.03,0.28-0.03,0.53,0.01,0.76c0.03,0.26,0.13,0.42,0.29,0.47
		c0.16,0.05,0.35,0.04,0.57-0.04c0.22-0.08,0.46-0.21,0.71-0.4c0.26-0.18,0.5-0.38,0.74-0.58c0.24-0.2,0.45-0.39,0.64-0.57
		c0.19-0.18,0.32-0.31,0.4-0.4c0.03-0.03,0.06-0.03,0.09-0.01c0.03,0.03,0.03,0.06,0.01,0.09c-0.1,0.11-0.26,0.27-0.46,0.47
		c-0.2,0.2-0.43,0.4-0.69,0.61c-0.26,0.21-0.52,0.4-0.8,0.59c-0.28,0.18-0.53,0.31-0.77,0.37c-0.24,0.06-0.44,0.05-0.62-0.04
		c-0.18-0.09-0.29-0.29-0.35-0.61c-0.04-0.26-0.04-0.56-0.01-0.9c0.04-0.34,0.09-0.69,0.17-1.05c0.08-0.36,0.18-0.74,0.3-1.12
		c0.12-0.38,0.25-0.75,0.38-1.11c0.14-0.36,0.28-0.69,0.43-1.01c0.15-0.32,0.29-0.59,0.41-0.82c0.26-0.46,0.52-0.82,0.8-1.08
		c0.28-0.26,0.54-0.44,0.79-0.53c0.25-0.09,0.47-0.11,0.66-0.04c0.19,0.06,0.33,0.19,0.42,0.38c0.09,0.19,0.11,0.45,0.07,0.76
		C86.02,62.05,85.89,62.41,85.68,62.82z M83.51,62.37c-0.16,0.3-0.32,0.62-0.47,0.97c-0.16,0.35-0.3,0.71-0.43,1.09
		c-0.13,0.37-0.25,0.74-0.35,1.11c-0.1,0.37-0.19,0.71-0.25,1.03c0.24-0.2,0.53-0.44,0.86-0.73s0.67-0.6,1.01-0.94
		c0.34-0.34,0.66-0.69,0.97-1.06c0.31-0.37,0.56-0.74,0.75-1.12c0.18-0.37,0.3-0.7,0.34-0.98s0.02-0.52-0.05-0.7
		c-0.07-0.18-0.19-0.29-0.35-0.35c-0.16-0.06-0.35-0.04-0.57,0.06c-0.22,0.1-0.45,0.28-0.7,0.54
		C84.01,61.57,83.76,61.92,83.51,62.37z"/>
	<path d="M85.38,68.64c0.02,0.15,0.07,0.23,0.15,0.22c0.08,0,0.18-0.07,0.31-0.2c0.21-0.22,0.4-0.49,0.56-0.8
		c0.17-0.31,0.31-0.61,0.42-0.89c-0.01-0.07-0.02-0.14-0.02-0.21c-0.01-0.07-0.02-0.14-0.02-0.22c-0.02-0.34-0.01-0.6,0.05-0.79
		c0.06-0.19,0.13-0.31,0.2-0.37c0.08-0.05,0.14-0.03,0.2,0.05c0.06,0.09,0.07,0.24,0.04,0.46c-0.04,0.28-0.14,0.62-0.3,1.02
		c0.04,0.36,0.13,0.59,0.26,0.7c0.14,0.1,0.29,0.13,0.47,0.07c0.18-0.06,0.37-0.18,0.58-0.35s0.4-0.36,0.58-0.56
		c0.03-0.04,0.06-0.05,0.09-0.02c0.03,0.03,0.03,0.06-0.01,0.09c-0.17,0.18-0.36,0.37-0.56,0.55c-0.21,0.18-0.41,0.31-0.61,0.38
		c-0.2,0.07-0.38,0.07-0.55-0.01c-0.16-0.08-0.28-0.29-0.35-0.64c-0.11,0.26-0.25,0.54-0.41,0.84c-0.16,0.3-0.34,0.56-0.53,0.77
		c-0.06,0.06-0.12,0.12-0.19,0.17c-0.07,0.05-0.14,0.09-0.22,0.1c-0.07,0.02-0.14,0-0.2-0.04c-0.06-0.04-0.11-0.12-0.14-0.23
		c-0.04-0.1-0.06-0.24-0.07-0.4c-0.01-0.16-0.01-0.34,0-0.52c0.01-0.18,0.02-0.36,0.04-0.54c0.02-0.18,0.04-0.32,0.06-0.44
		c0.02-0.1,0.04-0.18,0.08-0.24c0.04-0.06,0.08-0.11,0.11-0.13c0.04-0.02,0.07-0.03,0.09-0.01c0.02,0.02,0.03,0.07,0.01,0.15
		c-0.02,0.15-0.05,0.32-0.08,0.5c-0.03,0.18-0.05,0.36-0.06,0.54c-0.01,0.18-0.02,0.36-0.02,0.53
		C85.34,68.35,85.35,68.51,85.38,68.64z M86.91,66.71c0.05-0.14,0.1-0.28,0.14-0.43c0.05-0.15,0.08-0.28,0.1-0.4
		c0.02-0.2,0.03-0.32,0.01-0.35c-0.02-0.03-0.05-0.01-0.09,0.06c-0.04,0.07-0.08,0.18-0.11,0.31c-0.03,0.14-0.05,0.27-0.05,0.41
		V66.71z"/>
	<path d="M91.75,66.87c-0.04,0.04-0.12,0.12-0.23,0.23c-0.12,0.11-0.25,0.23-0.39,0.37c-0.14,0.13-0.29,0.26-0.44,0.38
		c-0.15,0.12-0.29,0.2-0.42,0.25c-0.15,0.06-0.25,0.07-0.3,0.03c-0.05-0.04-0.07-0.11-0.07-0.2c0-0.09,0.01-0.18,0.04-0.29
		c0.02-0.1,0.03-0.18,0.03-0.23c0-0.05-0.03-0.07-0.09-0.05c-0.06,0.02-0.16,0.11-0.32,0.27c-0.12,0.11-0.25,0.23-0.4,0.36
		c-0.15,0.13-0.29,0.22-0.43,0.29c-0.18,0.09-0.31,0.1-0.4,0.04c-0.09-0.06-0.14-0.16-0.14-0.3s0.02-0.3,0.08-0.48
		c0.06-0.18,0.16-0.35,0.29-0.5c0.13-0.15,0.28-0.27,0.47-0.36s0.39-0.11,0.62-0.07c0.06,0.01,0.1,0.03,0.1,0.08
		c0,0.04-0.01,0.07-0.05,0.08c-0.2,0.01-0.38,0.06-0.53,0.14c-0.16,0.09-0.29,0.19-0.4,0.31c-0.11,0.12-0.2,0.25-0.26,0.38
		c-0.06,0.14-0.09,0.25-0.1,0.35c-0.01,0.1,0.01,0.17,0.07,0.21c0.05,0.04,0.13,0.03,0.25-0.03c0.13-0.07,0.27-0.17,0.41-0.29
		c0.15-0.12,0.28-0.24,0.39-0.34c0.22-0.22,0.38-0.36,0.48-0.42c0.1-0.06,0.16-0.06,0.18-0.02c0.02,0.04,0.02,0.12-0.01,0.23
		c-0.03,0.11-0.05,0.22-0.07,0.33c-0.02,0.11-0.02,0.2-0.01,0.28c0.01,0.08,0.07,0.1,0.16,0.08c0.1-0.03,0.22-0.11,0.38-0.23
		c0.16-0.12,0.31-0.26,0.46-0.4c0.15-0.14,0.28-0.27,0.39-0.38c0.11-0.11,0.17-0.18,0.19-0.19c0.04-0.03,0.08-0.03,0.11-0.01
		C91.8,66.8,91.79,66.83,91.75,66.87z"/>
	<path d="M91.9,66.86c-0.02,0.04-0.07,0.12-0.13,0.25c-0.06,0.13-0.11,0.25-0.14,0.36c-0.03,0.1-0.03,0.17-0.01,0.21
		c0.03,0.04,0.11,0,0.25-0.11c0.1-0.09,0.2-0.19,0.3-0.31c0.1-0.12,0.19-0.23,0.29-0.35c0.1-0.12,0.19-0.23,0.29-0.34
		c0.1-0.11,0.2-0.2,0.31-0.27c0.14-0.09,0.28-0.12,0.42-0.08c0.14,0.03,0.29,0.16,0.43,0.4c0.14,0.22,0.26,0.38,0.38,0.48
		c0.12,0.1,0.24,0.16,0.36,0.17c0.12,0.01,0.25-0.02,0.38-0.11c0.14-0.08,0.29-0.21,0.46-0.38c0.03-0.03,0.06-0.03,0.09-0.01
		c0.03,0.03,0.03,0.06-0.01,0.09c-0.41,0.41-0.76,0.59-1.04,0.54c-0.29-0.05-0.58-0.3-0.86-0.74c-0.06-0.11-0.14-0.2-0.22-0.28
		c-0.08-0.07-0.19-0.06-0.32,0.02c-0.1,0.06-0.2,0.15-0.3,0.26c-0.1,0.11-0.19,0.22-0.29,0.34c-0.1,0.12-0.19,0.24-0.29,0.35
		c-0.1,0.12-0.2,0.22-0.31,0.31c-0.14,0.11-0.26,0.17-0.38,0.18c-0.12,0.01-0.18-0.08-0.19-0.25c-0.01-0.12,0.03-0.28,0.11-0.47
		c0.08-0.19,0.18-0.39,0.29-0.59c0.12-0.2,0.23-0.38,0.35-0.55c0.12-0.17,0.22-0.29,0.29-0.37c0.17-0.18,0.29-0.24,0.37-0.2
		c0.08,0.04,0.06,0.17-0.05,0.37c-0.12,0.21-0.25,0.39-0.39,0.56C92.21,66.5,92.06,66.67,91.9,66.86z M91.86,66.73
		c0.1-0.13,0.18-0.22,0.23-0.27c0.05-0.05,0.09-0.1,0.12-0.14c0.03-0.04,0.07-0.09,0.11-0.15c0.04-0.06,0.11-0.15,0.2-0.28
		c0.08-0.11,0.13-0.19,0.16-0.24c0.02-0.05,0.03-0.07,0.02-0.08c-0.01,0-0.04,0.01-0.08,0.05c-0.04,0.04-0.08,0.09-0.13,0.16
		c-0.1,0.14-0.21,0.29-0.32,0.45C92.05,66.39,91.95,66.56,91.86,66.73z"/>
	<path d="M98.38,66.87c-0.04,0.04-0.12,0.12-0.23,0.23c-0.12,0.11-0.25,0.23-0.39,0.37c-0.14,0.13-0.29,0.26-0.44,0.38
		c-0.15,0.12-0.29,0.2-0.42,0.25c-0.15,0.06-0.25,0.07-0.3,0.03c-0.05-0.04-0.07-0.11-0.07-0.2c0-0.09,0.01-0.18,0.04-0.29
		c0.02-0.1,0.03-0.18,0.03-0.23c0-0.05-0.03-0.07-0.09-0.05c-0.06,0.02-0.16,0.11-0.32,0.27c-0.12,0.11-0.25,0.23-0.4,0.36
		c-0.15,0.13-0.29,0.22-0.43,0.29c-0.18,0.09-0.31,0.1-0.4,0.04c-0.09-0.06-0.14-0.16-0.14-0.3s0.02-0.3,0.08-0.48
		c0.06-0.18,0.16-0.35,0.29-0.5c0.13-0.15,0.28-0.27,0.47-0.36c0.18-0.09,0.39-0.11,0.62-0.07c0.06,0.01,0.1,0.03,0.1,0.08
		c0,0.04-0.01,0.07-0.05,0.08c-0.2,0.01-0.38,0.06-0.53,0.14c-0.16,0.09-0.29,0.19-0.4,0.31c-0.11,0.12-0.2,0.25-0.26,0.38
		c-0.06,0.14-0.09,0.25-0.1,0.35c-0.01,0.1,0.01,0.17,0.07,0.21c0.05,0.04,0.13,0.03,0.25-0.03c0.13-0.07,0.27-0.17,0.41-0.29
		c0.15-0.12,0.28-0.24,0.39-0.34c0.22-0.22,0.38-0.36,0.48-0.42c0.1-0.06,0.16-0.06,0.18-0.02c0.02,0.04,0.02,0.12-0.01,0.23
		c-0.03,0.11-0.05,0.22-0.07,0.33c-0.02,0.11-0.02,0.2-0.01,0.28c0.01,0.08,0.07,0.1,0.16,0.08c0.1-0.03,0.22-0.11,0.38-0.23
		c0.16-0.12,0.31-0.26,0.46-0.4c0.15-0.14,0.28-0.27,0.39-0.38c0.11-0.11,0.17-0.18,0.19-0.19c0.04-0.03,0.08-0.03,0.11-0.01
		C98.43,66.8,98.42,66.83,98.38,66.87z"/>
	<path d="M101.83,62.25c0.2-0.35,0.45-0.65,0.74-0.9c0.29-0.25,0.59-0.4,0.88-0.46c0.3-0.06,0.57,0,0.81,0.18
		c0.24,0.18,0.42,0.52,0.52,1.02c0.05,0.26,0.08,0.53,0.09,0.82c0.01,0.29,0.01,0.58,0,0.86c-0.01,0.28-0.03,0.54-0.05,0.79
		c-0.02,0.25-0.04,0.46-0.05,0.62c0.09-0.1,0.17-0.19,0.24-0.27c0.07-0.08,0.15-0.15,0.24-0.23c0.02-0.03,0.06-0.04,0.1-0.02
		c0.04,0.02,0.05,0.04,0.02,0.07c-0.2,0.19-0.41,0.41-0.62,0.66c-0.09,0.88-0.23,1.77-0.42,2.67s-0.45,1.76-0.78,2.58
		c-0.24,0.58-0.51,1.02-0.8,1.3c-0.3,0.28-0.56,0.42-0.78,0.41c-0.22-0.01-0.37-0.17-0.45-0.48c-0.08-0.31-0.01-0.77,0.19-1.37
		c0.13-0.41,0.29-0.83,0.5-1.28c0.2-0.44,0.43-0.88,0.68-1.32c0.25-0.44,0.51-0.86,0.78-1.27c0.27-0.41,0.55-0.78,0.83-1.12
		c0.02-0.18,0.04-0.4,0.06-0.67c0.02-0.27,0.04-0.56,0.06-0.86c0.02-0.3,0.02-0.61,0.01-0.92c-0.01-0.31-0.03-0.59-0.07-0.86
		c-0.06-0.33-0.14-0.58-0.25-0.77c-0.11-0.18-0.24-0.31-0.4-0.38c-0.15-0.07-0.32-0.08-0.49-0.05c-0.18,0.04-0.35,0.11-0.53,0.23
		c-0.18,0.12-0.35,0.27-0.51,0.45c-0.16,0.18-0.31,0.39-0.43,0.61c-0.1,0.17-0.18,0.37-0.26,0.62c-0.08,0.24-0.14,0.51-0.19,0.79
		c-0.05,0.28-0.08,0.58-0.09,0.88c-0.01,0.3,0,0.58,0.03,0.85c0.03,0.27,0.09,0.51,0.18,0.74c0.09,0.22,0.21,0.4,0.36,0.53
		c0.16,0.14,0.31,0.18,0.45,0.12c0.14-0.06,0.19-0.19,0.15-0.4c0.05-0.08,0.12-0.11,0.21-0.1c0.09,0.02,0.13,0.08,0.13,0.2
		c-0.02,0.11-0.06,0.2-0.13,0.28c-0.07,0.07-0.15,0.12-0.26,0.14c-0.1,0.02-0.21,0.02-0.33-0.01c-0.12-0.03-0.22-0.09-0.32-0.19
		c-0.22-0.21-0.38-0.51-0.47-0.91c-0.09-0.4-0.12-0.83-0.11-1.28c0.02-0.45,0.07-0.89,0.17-1.31
		C101.56,62.85,101.68,62.51,101.83,62.25z M104.44,65.75c-0.26,0.34-0.51,0.7-0.77,1.09c-0.26,0.39-0.51,0.8-0.74,1.21
		c-0.23,0.42-0.44,0.84-0.64,1.26c-0.19,0.42-0.35,0.83-0.48,1.22c-0.18,0.58-0.25,1-0.2,1.27c0.05,0.27,0.17,0.4,0.35,0.4
		c0.18,0,0.39-0.14,0.64-0.42c0.25-0.28,0.48-0.67,0.68-1.19c0.3-0.75,0.55-1.54,0.73-2.37C104.2,67.39,104.34,66.57,104.44,65.75z"
		/>
	<path d="M106.02,66.7c-0.06,0.07-0.13,0.17-0.19,0.28c-0.06,0.12-0.12,0.24-0.17,0.37c-0.06,0.13-0.1,0.26-0.14,0.39
		c-0.04,0.13-0.06,0.25-0.08,0.35c-0.02,0.1-0.02,0.18,0,0.22c0.02,0.04,0.04,0.07,0.07,0.07c0.03,0,0.07-0.01,0.12-0.04
		c0.05-0.03,0.1-0.07,0.14-0.11c0.14-0.13,0.27-0.27,0.41-0.44c0.14-0.16,0.26-0.32,0.38-0.46c0.06-0.07,0.14-0.17,0.24-0.31
		c0.1-0.13,0.2-0.24,0.3-0.33c0.1-0.09,0.17-0.12,0.23-0.11c0.06,0.02,0.06,0.14,0.01,0.36c-0.02,0.11-0.05,0.25-0.08,0.41
		c-0.03,0.16-0.03,0.31-0.02,0.44c0.02,0.13,0.06,0.23,0.14,0.29s0.21,0.06,0.4-0.02c0.18-0.06,0.39-0.2,0.65-0.4
		c0.26-0.2,0.59-0.5,1-0.89c0.04-0.04,0.07-0.05,0.1-0.02c0.02,0.03,0.02,0.06-0.01,0.09c-0.42,0.39-0.76,0.69-1.03,0.9
		c-0.27,0.21-0.49,0.35-0.68,0.43c-0.23,0.1-0.41,0.12-0.53,0.07c-0.12-0.05-0.2-0.14-0.24-0.26c-0.04-0.13-0.05-0.28-0.04-0.46
		c0.02-0.18,0.04-0.34,0.07-0.49c0.02-0.06,0.03-0.11,0.03-0.14c0-0.03-0.01-0.03-0.04-0.01c-0.03,0.02-0.08,0.08-0.14,0.16
		c-0.07,0.08-0.16,0.2-0.28,0.35c-0.11,0.14-0.25,0.31-0.41,0.51c-0.16,0.2-0.31,0.35-0.46,0.46c-0.08,0.06-0.16,0.11-0.23,0.15
		c-0.07,0.04-0.14,0.05-0.19,0.04c-0.06-0.01-0.1-0.05-0.13-0.11c-0.03-0.06-0.05-0.16-0.05-0.29c0-0.1,0.02-0.21,0.05-0.34
		c0.03-0.13,0.07-0.26,0.13-0.39c0.05-0.13,0.11-0.26,0.17-0.38c0.06-0.12,0.13-0.23,0.19-0.32c0.09-0.13,0.17-0.18,0.26-0.16
		C106.08,66.58,106.09,66.63,106.02,66.7z"/>
	<path d="M113.41,62.82c-0.2,0.38-0.46,0.77-0.77,1.15c-0.32,0.38-0.65,0.74-1,1.09c-0.35,0.34-0.7,0.66-1.04,0.95
		c-0.34,0.29-0.64,0.54-0.9,0.75c-0.04,0.24-0.07,0.5-0.1,0.77c-0.03,0.28-0.03,0.53,0.01,0.76c0.03,0.26,0.13,0.42,0.29,0.47
		c0.16,0.05,0.35,0.04,0.57-0.04c0.22-0.08,0.46-0.21,0.71-0.4c0.26-0.18,0.5-0.38,0.74-0.58c0.24-0.2,0.45-0.39,0.64-0.57
		c0.19-0.18,0.32-0.31,0.4-0.4c0.03-0.03,0.06-0.03,0.09-0.01c0.03,0.03,0.03,0.06,0.01,0.09c-0.1,0.11-0.26,0.27-0.46,0.47
		s-0.43,0.4-0.69,0.61c-0.26,0.21-0.52,0.4-0.8,0.59c-0.28,0.18-0.53,0.31-0.77,0.37c-0.24,0.06-0.44,0.05-0.62-0.04
		c-0.18-0.09-0.29-0.29-0.35-0.61c-0.04-0.26-0.04-0.56-0.01-0.9c0.04-0.34,0.09-0.69,0.17-1.05c0.08-0.36,0.18-0.74,0.3-1.12
		c0.12-0.38,0.25-0.75,0.38-1.11c0.14-0.36,0.28-0.69,0.43-1.01c0.15-0.32,0.29-0.59,0.41-0.82c0.26-0.46,0.52-0.82,0.8-1.08
		c0.28-0.26,0.54-0.44,0.79-0.53c0.25-0.09,0.47-0.11,0.66-0.04c0.19,0.06,0.33,0.19,0.42,0.38c0.09,0.19,0.11,0.45,0.07,0.76
		C113.74,62.05,113.62,62.41,113.41,62.82z M111.24,62.37c-0.16,0.3-0.32,0.62-0.47,0.97c-0.16,0.35-0.3,0.71-0.43,1.09
		c-0.13,0.37-0.25,0.74-0.35,1.11c-0.1,0.37-0.19,0.71-0.25,1.03c0.24-0.2,0.53-0.44,0.86-0.73c0.34-0.29,0.67-0.6,1.01-0.94
		c0.34-0.34,0.66-0.69,0.97-1.06c0.31-0.37,0.56-0.74,0.75-1.12c0.18-0.37,0.3-0.7,0.34-0.98c0.04-0.29,0.02-0.52-0.05-0.7
		c-0.07-0.18-0.19-0.29-0.35-0.35c-0.16-0.06-0.35-0.04-0.57,0.06c-0.22,0.1-0.45,0.28-0.7,0.54
		C111.74,61.57,111.49,61.92,111.24,62.37z"/>
	<path d="M113.24,66.73c-0.04,0.06-0.08,0.15-0.13,0.25c-0.05,0.1-0.09,0.21-0.12,0.32c-0.03,0.12-0.05,0.23-0.05,0.34
		c0,0.11,0.01,0.2,0.05,0.27c0.03,0.06,0.08,0.1,0.14,0.11c0.06,0.01,0.12,0.01,0.19,0c0.07-0.01,0.13-0.03,0.19-0.06
		c0.06-0.03,0.11-0.05,0.16-0.08c0.24-0.14,0.48-0.3,0.72-0.5c0.24-0.2,0.46-0.4,0.66-0.6c0.02-0.02,0.05-0.02,0.08,0.01
		c0.03,0.03,0.03,0.05,0,0.08c-0.21,0.21-0.43,0.41-0.67,0.62c-0.24,0.2-0.49,0.37-0.74,0.51c-0.07,0.04-0.15,0.08-0.24,0.11
		c-0.09,0.04-0.18,0.06-0.26,0.07c-0.09,0.01-0.17,0-0.25-0.03c-0.08-0.03-0.14-0.09-0.19-0.17c-0.05-0.08-0.07-0.17-0.08-0.28
		c0-0.11,0.01-0.22,0.03-0.34c0.02-0.12,0.06-0.23,0.1-0.34c0.04-0.11,0.08-0.2,0.13-0.27c0.03-0.06,0.07-0.11,0.13-0.14
		c0.05-0.03,0.1-0.04,0.13-0.04c0.04,0,0.06,0.02,0.07,0.05C113.3,66.64,113.28,66.68,113.24,66.73z M113.57,66.17
		c-0.03,0.04-0.07,0.06-0.11,0.07c-0.04,0-0.08-0.01-0.11-0.03c-0.03-0.02-0.05-0.06-0.06-0.1c-0.01-0.04,0.01-0.09,0.06-0.14
		c0.02-0.02,0.06-0.04,0.1-0.04c0.04,0,0.08,0.01,0.11,0.02c0.03,0.02,0.05,0.04,0.06,0.08C113.61,66.08,113.6,66.13,113.57,66.17z"
		/>
	<path d="M115.72,66.76c0.05-0.04,0.09-0.05,0.13-0.04c0.04,0.01,0.07,0.04,0.09,0.08c0.02,0.04,0.04,0.09,0.05,0.14
		c0.01,0.06,0.01,0.1,0,0.14c0.06,0.01,0.13,0,0.21-0.01c0.08-0.02,0.17-0.04,0.25-0.07c0.08-0.03,0.16-0.07,0.24-0.11
		c0.08-0.04,0.13-0.08,0.17-0.12c0.03-0.03,0.06-0.03,0.09,0c0.03,0.03,0.03,0.06-0.01,0.08c-0.05,0.05-0.11,0.09-0.2,0.14
		c-0.08,0.04-0.17,0.08-0.27,0.12c-0.1,0.04-0.19,0.06-0.28,0.08c-0.09,0.02-0.17,0.02-0.23,0.01c-0.13,0.26-0.26,0.43-0.4,0.5
		s-0.26,0.08-0.37,0.01c-0.1-0.06-0.18-0.17-0.23-0.33c-0.05-0.16-0.04-0.33,0.02-0.52c0.02-0.08,0.07-0.15,0.14-0.21
		c0.07-0.06,0.14-0.1,0.22-0.12c0.08-0.02,0.15-0.01,0.22,0.02C115.64,66.59,115.69,66.66,115.72,66.76z M115.24,66.92
		c-0.06,0.19-0.07,0.35-0.04,0.47c0.03,0.12,0.08,0.19,0.15,0.22c0.07,0.03,0.16,0.01,0.25-0.06c0.1-0.07,0.18-0.19,0.25-0.38
		c-0.06-0.04-0.11-0.09-0.14-0.15c-0.03-0.06-0.06-0.12-0.1-0.17c-0.06-0.12-0.14-0.16-0.22-0.11
		C115.32,66.78,115.27,66.84,115.24,66.92z M115.87,67.04c0-0.02-0.01-0.07-0.02-0.14c-0.01-0.07-0.03-0.08-0.05-0.03
		c-0.02,0.03-0.01,0.06,0.01,0.1C115.82,67,115.84,67.02,115.87,67.04z"/>
</g>
</svg>
